<svg width="512" height="512" viewBox="0 0 512 512" fill="none" xmlns="http://www.w3.org/2000/svg">
<g clip-path="url(#clip0_316_15)">
<rect width="512" height="512" rx="24" fill="url(#paint0_linear_316_15)"/>
<path fill-rule="evenodd" clip-rule="evenodd" d="M61.8859 296.623C72.9766 322.149 88.0281 344.595 107.041 363.959L137.144 333.856C121.652 318.717 109.505 300.936 100.703 280.516C91.901 260.095 87.5 238.089 87.5 214.5C87.5 191.262 91.901 169.433 100.703 149.012C109.505 128.592 121.652 110.635 137.144 95.1437L107.041 65.0405C88.0281 84.053 72.9766 106.322 61.8859 131.848C50.7953 157.374 45.25 184.925 45.25 214.5C45.25 243.723 50.7953 271.097 61.8859 296.623ZM139.784 263.88C146.474 279.195 155.452 292.662 166.719 304.281L196.822 274.178C189.076 266.432 183.003 257.454 178.602 247.244C174.201 237.033 172 226.119 172 214.5C172 202.881 174.201 191.967 178.602 181.756C183.003 171.546 189.076 162.568 196.822 154.822L166.719 124.719C155.452 135.985 146.474 149.276 139.784 164.592C133.095 179.908 129.75 196.544 129.75 214.5C129.75 232.104 133.095 248.564 139.784 263.88ZM316.178 274.178L346.281 304.281C357.548 292.662 366.526 279.195 373.216 263.88C379.905 248.564 383.25 232.104 383.25 214.5C383.25 196.544 379.905 179.908 373.216 164.592C366.526 149.276 357.548 135.985 346.281 124.719L316.178 154.822C323.924 162.568 329.997 171.546 334.398 181.756C338.799 191.967 341 202.881 341 214.5C341 226.119 338.799 237.033 334.398 247.244C329.997 257.454 323.924 266.432 316.178 274.178ZM375.856 333.856L405.959 363.959C424.972 344.595 440.023 322.149 451.114 296.623C462.205 271.097 467.75 243.723 467.75 214.5C467.75 184.925 462.205 157.374 451.114 131.848C440.023 106.322 424.972 84.053 405.959 65.0405L375.856 95.1437C391.348 110.283 403.495 128.063 412.297 148.484C421.099 168.905 425.5 190.91 425.5 214.5C425.5 237.737 421.099 259.567 412.297 279.987C403.495 300.408 391.348 318.365 375.856 333.856Z" fill="url(#paint1_linear_316_15)"/>
<path d="M208.167 228.667H269.667V180.833H208.167V228.667ZM201.333 269.667C197.575 269.667 194.358 268.328 191.681 265.652C189.005 262.976 187.667 259.758 187.667 256V174C187.667 170.242 189.005 167.024 191.681 164.348C194.358 161.671 197.575 160.333 201.333 160.333H310.667C314.425 160.333 317.642 161.671 320.319 164.348C322.995 167.024 324.333 170.242 324.333 174V256C324.333 259.758 322.995 262.976 320.319 265.652C317.642 268.328 314.425 269.667 310.667 269.667H201.333ZM201.333 256H310.667V174H201.333V256Z" fill="url(#paint2_linear_316_15)"/>
<g clip-path="url(#clip1_316_15)">
<path d="M264.333 431.333H331V373H306V339.667H264.333V323H289.333V264.667H222.667V323H247.667V339.667H206V373H181V431.333H247.667V373H222.667V356.333H289.333V373H264.333V431.333ZM239.333 306.333V281.333H272.667V306.333H239.333ZM231 389.667V414.667H197.667V389.667H231ZM314.333 389.667V414.667H281V389.667H314.333Z" fill="url(#paint3_linear_316_15)"/>
</g>
</g>
<defs>
<linearGradient id="paint0_linear_316_15" x1="512" y1="512" x2="0" y2="0" gradientUnits="userSpaceOnUse">
<stop stop-color="#38BDF8"/>
<stop offset="1" stop-color="#07B3FF"/>
</linearGradient>
<linearGradient id="paint1_linear_316_15" x1="256.5" y1="65.0405" x2="256.5" y2="363.959" gradientUnits="userSpaceOnUse">
<stop/>
<stop offset="1" stop-color="#2C2C2C"/>
</linearGradient>
<linearGradient id="paint2_linear_316_15" x1="256" y1="160.333" x2="256" y2="269.667" gradientUnits="userSpaceOnUse">
<stop/>
<stop offset="1" stop-color="#2C2C2C"/>
</linearGradient>
<linearGradient id="paint3_linear_316_15" x1="256" y1="264.667" x2="256" y2="431.333" gradientUnits="userSpaceOnUse">
<stop stop-color="#2C2C2C"/>
<stop offset="1"/>
</linearGradient>
<clipPath id="clip0_316_15">
<rect width="512" height="512" rx="24" fill="white"/>
</clipPath>
<clipPath id="clip1_316_15">
<rect width="200" height="200" fill="white" transform="translate(156 248)"/>
</clipPath>
</defs>
</svg>
